<svg
   viewBox="0 0 576 512"
   version="1.1">
  <!--!Font Awesome Free 7.2.0 by @fontawesome - https://fontawesome.com License - https://fontawesome.com/license/free Copyright 2026 Fonticons, Inc.-->
  <path
     d="m 488.56706,73.375634 c -0.19615,-0.294236 -0.39231,-0.588471 -0.78463,-0.68655 -37.36791,-17.163741 -76.89356,-29.423556 -117.39998,-36.387131 -0.39232,-0.09808 -0.78463,0 -1.07887,0.09808 -0.29423,0.09808 -0.58847,0.392314 -0.78463,0.784628 -5.39432,9.709773 -10.29824,19.811861 -14.6137,30.012027 -43.74302,-6.669339 -88.17259,-6.669339 -131.81753,0 -4.41353,-10.298245 -9.31746,-20.302254 -14.80985,-30.012027 -0.19616,-0.294236 -0.4904,-0.588471 -0.78463,-0.784628 -0.29424,-0.196157 -0.68655,-0.196157 -1.07887,-0.196157 C 164.90795,43.16745 125.3823,55.427265 88.014386,72.591006 87.72015,72.689084 87.425915,72.98332 87.229758,73.277555 12.493925,184.89091 -8.0044853,293.85615 1.9995237,401.35021 c 0,0.29423 0.098078,0.49039 0.1961571,0.78462 0.098079,0.29424 0.2942355,0.39232 0.4903926,0.58847 43.5468626,32.26784 92.1938086,56.88555 143.9792666,72.77427 0.39232,0.0981 0.78463,0.0981 1.07886,0 0.29424,-0.0981 0.68655,-0.39232 0.88271,-0.68655 11.08287,-15.1041 20.9888,-31.18897 29.42356,-47.86232 0.0981,-0.19616 0.19615,-0.49039 0.19615,-0.78463 0,-0.29423 0,-0.49039 -0.0981,-0.78463 -0.0981,-0.29423 -0.19616,-0.49039 -0.39232,-0.58847 -0.19616,-0.0981 -0.39231,-0.29423 -0.68655,-0.39231 -15.4964,-5.98279 -30.6005,-13.14252 -45.01804,-21.4792 -0.29423,-0.19616 -0.49039,-0.39231 -0.68655,-0.58847 -0.19616,-0.19616 -0.29423,-0.58847 -0.29423,-0.88271 0,-0.29423 0,-0.58847 0.19615,-0.8827 0.19616,-0.29424 0.29424,-0.4904 0.58847,-0.68655 3.04044,-2.25581 6.08087,-4.60969 8.92515,-6.96358 0.29424,-0.19615 0.58847,-0.39231 0.88271,-0.39231 0.29423,0 0.68655,0 0.98078,0.0981 94.35154,43.05647 196.54936,43.05647 289.82203,0 0.29423,-0.0981 0.68655,-0.19616 0.98078,-0.19616 0.29424,0 0.68655,0.19616 0.88271,0.39231 2.84428,2.35389 5.88471,4.80585 8.92515,7.06166 0.19615,0.19615 0.39231,0.39231 0.58847,0.68655 0.19615,0.29423 0.19615,0.58847 0.19615,0.8827 0,0.29424 -0.0981,0.58847 -0.29423,0.88271 -0.19616,0.29424 -0.39232,0.49039 -0.58847,0.58847 -14.41755,8.43475 -29.42356,15.59449 -45.01804,21.38112 -0.19616,0.0981 -0.4904,0.19616 -0.68655,0.39231 -0.19616,0.19616 -0.29424,0.39232 -0.39232,0.68655 -0.0981,0.29424 -0.0981,0.4904 -0.0981,0.78463 0,0.29424 0.0981,0.49039 0.19616,0.78463 8.63091,16.67335 18.43876,32.66015 29.42356,47.86232 0.19615,0.29423 0.58847,0.58847 0.8827,0.68655 0.29424,0.0981 0.78463,0.0981 1.07887,0 51.88353,-15.88872 100.62856,-40.50643 144.2735,-72.77427 0.19616,-0.19615 0.39232,-0.39231 0.49039,-0.58847 0.0981,-0.19615 0.19616,-0.49039 0.19616,-0.78462 C 585.56672,276.98664 553.39696,169.00219 488.27283,73.277555 Z M 192.36993,335.93183 c -28.44277,0 -51.78546,-26.08888 -51.78546,-58.06248 0,-31.9736 22.95038,-58.06249 51.78546,-58.06249 29.12932,0 52.27585,26.28505 51.78546,58.06249 0,32.07167 -22.95037,58.06248 -51.78546,58.06248 z m 191.64543,0 c -28.44277,0 -51.78546,-26.08888 -51.78546,-58.06248 0,-31.9736 22.95037,-58.06249 51.78546,-58.06249 29.12932,0 52.27585,26.28505 51.78546,58.06249 0,32.07167 -22.75422,58.06248 -51.78546,58.06248 z"/>
</svg>
